<svg preserveAspectRatio="none" overflow="visible" style="display: block;" width="9.96227" height="9.96227" viewBox="0 0 9.96227 9.96227" fill="none" xmlns="http://www.w3.org/2000/svg">
<g id="ic_session_accounts" clip-path="url(#clip0_0_50)">
<path id="Icon" d="M5.81948 4.0703C5.90382 4.31403 6.16977 4.44324 6.4135 4.3589C6.65723 4.27456 6.78644 4.00862 6.7021 3.76489L6.26079 3.9176L5.81948 4.0703ZM5.5253 3.3627L5.54581 2.89616C5.53898 2.89586 5.53214 2.89571 5.5253 2.89571V3.3627ZM4.43567 5.0274V5.49438V5.0274ZM5.5253 6.6921V7.15908V6.6921ZM4.43567 6.6921L4.41516 7.15863C4.42199 7.15893 4.42883 7.15908 4.43567 7.15908V6.6921ZM4.14149 5.98449C4.05715 5.74076 3.7912 5.61155 3.54747 5.69589C3.30374 5.78023 3.17453 6.04618 3.25887 6.2899L3.70018 6.1372L4.14149 5.98449ZM5.44747 2.53034C5.44747 2.27244 5.23839 2.06336 4.98048 2.06336C4.72258 2.06336 4.5135 2.27244 4.5135 2.53034H4.98048H5.44747ZM4.5135 3.3627C4.5135 3.6206 4.72258 3.82968 4.98048 3.82968C5.23839 3.82968 5.44747 3.6206 5.44747 3.3627H4.98048H4.5135ZM5.44747 6.6921C5.44747 6.43419 5.23839 6.22512 4.98048 6.22512C4.72258 6.22512 4.5135 6.43419 4.5135 6.6921H4.98048H5.44747ZM4.5135 7.52445C4.5135 7.78236 4.72258 7.99143 4.98048 7.99143C5.23839 7.99143 5.44747 7.78236 5.44747 7.52445H4.98048H4.5135ZM6.26079 3.9176L6.7021 3.76489C6.61787 3.52149 6.46359 3.30796 6.25772 3.15264L5.97647 3.52543L5.69522 3.89822C5.75151 3.94068 5.79527 4.00032 5.81948 4.0703L6.26079 3.9176ZM5.97647 3.52543L6.25772 3.15264C6.05175 2.99725 5.80384 2.90751 5.54581 2.89616L5.5253 3.3627L5.50478 3.82923C5.57269 3.83221 5.63904 3.85583 5.69522 3.89822L5.97647 3.52543ZM5.5253 3.3627V2.89571H4.43567V3.3627V3.82968H5.5253V3.3627ZM4.43567 3.3627V2.89571C4.09229 2.89571 3.76474 3.03473 3.52459 3.27932L3.85781 3.60649L4.19103 3.93365C4.2574 3.86605 4.34558 3.82968 4.43567 3.82968V3.3627ZM3.85781 3.60649L3.52459 3.27932C3.28473 3.52363 3.15148 3.85318 3.15148 4.19505H3.61846H4.08544C4.08544 4.09541 4.12438 4.00154 4.19103 3.93365L3.85781 3.60649ZM3.61846 4.19505H3.15148C3.15148 4.53691 3.28473 4.86647 3.52459 5.11077L3.85781 4.78361L4.19103 4.45644C4.12438 4.38856 4.08544 4.29468 4.08544 4.19505H3.61846ZM3.85781 4.78361L3.52459 5.11077C3.76474 5.35536 4.09229 5.49438 4.43567 5.49438V5.0274V4.56042C4.34558 4.56042 4.2574 4.52404 4.19103 4.45644L3.85781 4.78361ZM4.43567 5.0274V5.49438H5.5253V5.0274V4.56042H4.43567V5.0274ZM5.5253 5.0274V5.49438C5.61539 5.49438 5.70357 5.53075 5.76993 5.59835L6.10316 5.27119L6.43638 4.94402C6.19623 4.69943 5.86868 4.56042 5.5253 4.56042V5.0274ZM6.10316 5.27119L5.76993 5.59835C5.83659 5.66624 5.87553 5.76011 5.87553 5.85975H6.34251H6.80949C6.80949 5.51788 6.67624 5.18833 6.43638 4.94402L6.10316 5.27119ZM6.34251 5.85975H5.87553C5.87553 5.95939 5.83659 6.05326 5.76993 6.12115L6.10316 6.44831L6.43638 6.77547C6.67624 6.53117 6.80949 6.20162 6.80949 5.85975H6.34251ZM6.10316 6.44831L5.76993 6.12115C5.70356 6.18874 5.61539 6.22512 5.5253 6.22512V6.6921V7.15908C5.86868 7.15908 6.19623 7.02006 6.43638 6.77547L6.10316 6.44831ZM5.5253 6.6921V6.22512H4.43567V6.6921V7.15908H5.5253V6.6921ZM4.43567 6.6921L4.45619 6.22557C4.38828 6.22258 4.32193 6.19896 4.26575 6.15658L3.9845 6.52936L3.70324 6.90215C3.90922 7.05755 4.15713 7.14728 4.41516 7.15863L4.43567 6.6921ZM3.9845 6.52936L4.26575 6.15658C4.20946 6.11411 4.1657 6.05448 4.14149 5.98449L3.70018 6.1372L3.25887 6.2899C3.3431 6.5333 3.49738 6.74683 3.70324 6.90215L3.9845 6.52936ZM4.98048 2.53034H4.5135V3.3627H4.98048H5.44747V2.53034H4.98048ZM4.98048 6.6921H4.5135V7.52445H4.98048H5.44747V6.6921H4.98048ZM9.33898 4.982H8.87199C8.87199 7.13122 7.12971 8.87351 4.98048 8.87351V9.34049V9.80747C7.64552 9.80747 9.80596 7.64703 9.80596 4.982H9.33898ZM4.98048 9.34049V8.87351C2.83126 8.87351 1.08898 7.13122 1.08898 4.982H0.621994H0.155013C0.155013 7.64703 2.31545 9.80747 4.98048 9.80747V9.34049ZM0.621994 4.982H1.08898C1.08898 2.83277 2.83126 1.09049 4.98048 1.09049V0.623505V0.156524C2.31545 0.156524 0.155013 2.31696 0.155013 4.982H0.621994ZM4.98048 0.623505V1.09049C7.12971 1.09049 8.87199 2.83277 8.87199 4.982H9.33898H9.80596C9.80596 2.31696 7.64552 0.156524 4.98048 0.156524V0.623505Z" fill="#101423"/>
</g>
<defs>
<clipPath id="clip0_0_50">
<rect width="9.96227" height="9.96227" fill="white"/>
</clipPath>
</defs>
</svg>
